<svg width="100" height="100" xmlns="http://www.w3.org/2000/svg">

 <g>
  <title>background</title>
  <rect fill="none" id="canvas_background" height="402" width="582" y="-1" x="-1"/>
 </g>
 <g>
  <title>Layer 1</title>
  <circle fill="#343434" id="svg_2" r="45" cy="49.999" cx="50"/>
  <path id="Codepen_1_" fill="#FFFFFF" d="m69.072,43.972c-0.004,-0.025 -0.01,-0.047 -0.014,-0.072c-0.008,-0.047 -0.015,-0.092 -0.028,-0.137c-0.008,-0.027 -0.018,-0.053 -0.026,-0.08c-0.014,-0.041 -0.025,-0.08 -0.039,-0.119c-0.013,-0.027 -0.026,-0.055 -0.04,-0.08c-0.015,-0.037 -0.032,-0.074 -0.057,-0.109c-0.012,-0.025 -0.029,-0.051 -0.046,-0.076c-0.021,-0.033 -0.044,-0.068 -0.069,-0.1c-0.019,-0.023 -0.034,-0.047 -0.055,-0.07c-0.027,-0.031 -0.054,-0.061 -0.084,-0.09c-0.021,-0.021 -0.042,-0.043 -0.063,-0.064c-0.03,-0.025 -0.062,-0.053 -0.092,-0.076c-0.026,-0.02 -0.051,-0.039 -0.074,-0.057c-0.01,-0.006 -0.019,-0.016 -0.028,-0.02l-17.446,-11.632c-0.552,-0.368 -1.27,-0.368 -1.821,0l-17.444,11.631c-0.01,0.004 -0.018,0.014 -0.027,0.02c-0.026,0.018 -0.048,0.037 -0.074,0.057c-0.032,0.023 -0.062,0.051 -0.092,0.076c-0.024,0.021 -0.044,0.043 -0.066,0.064c-0.03,0.029 -0.056,0.059 -0.082,0.09c-0.02,0.023 -0.04,0.047 -0.056,0.07c-0.024,0.031 -0.048,0.066 -0.07,0.1c-0.016,0.025 -0.031,0.051 -0.048,0.076c-0.018,0.035 -0.036,0.072 -0.054,0.109c-0.012,0.025 -0.026,0.053 -0.036,0.08c-0.016,0.039 -0.03,0.078 -0.044,0.119c-0.008,0.027 -0.018,0.053 -0.024,0.08c-0.012,0.045 -0.02,0.09 -0.027,0.137c-0.006,0.025 -0.013,0.047 -0.015,0.072c-0.01,0.068 -0.016,0.141 -0.016,0.213l0,11.631c0,0.072 0.006,0.143 0.016,0.215c0.002,0.021 0.009,0.047 0.015,0.07c0.008,0.047 0.016,0.092 0.027,0.137c0.007,0.027 0.017,0.055 0.024,0.08c0.014,0.039 0.028,0.08 0.044,0.121c0.01,0.025 0.024,0.053 0.036,0.078c0.018,0.037 0.036,0.072 0.054,0.109c0.017,0.025 0.032,0.051 0.048,0.076c0.022,0.033 0.046,0.066 0.07,0.098c0.016,0.025 0.036,0.049 0.056,0.072c0.026,0.029 0.052,0.061 0.082,0.088c0.022,0.023 0.042,0.045 0.066,0.064c0.029,0.027 0.06,0.055 0.092,0.078c0.026,0.02 0.048,0.039 0.074,0.057c0.01,0.006 0.018,0.016 0.027,0.021l17.444,11.631c0.275,0.186 0.594,0.275 0.911,0.275c0.318,0 0.636,-0.09 0.91,-0.275l17.445,-11.629c0.01,-0.006 0.019,-0.016 0.028,-0.021c0.023,-0.018 0.048,-0.037 0.074,-0.057c0.029,-0.023 0.062,-0.051 0.092,-0.078c0.021,-0.02 0.042,-0.041 0.063,-0.064c0.03,-0.027 0.057,-0.059 0.084,-0.088c0.021,-0.023 0.036,-0.047 0.055,-0.072c0.025,-0.031 0.048,-0.064 0.069,-0.098c0.017,-0.025 0.034,-0.051 0.046,-0.076c0.024,-0.037 0.042,-0.072 0.057,-0.109c0.014,-0.025 0.027,-0.053 0.04,-0.078c0.014,-0.041 0.025,-0.082 0.039,-0.121c0.009,-0.025 0.019,-0.053 0.026,-0.08c0.014,-0.045 0.021,-0.09 0.028,-0.137c0.004,-0.023 0.01,-0.049 0.014,-0.07c0.008,-0.072 0.014,-0.143 0.014,-0.215l0,-11.632c0.001,-0.073 -0.005,-0.145 -0.013,-0.213zm-17.431,-8.352l12.852,8.568l-5.741,3.838l-7.11,-4.758l0,-7.648l-0.001,0zm-3.279,0l0,7.648l-7.113,4.758l-5.741,-3.838l12.854,-8.568zm-14.166,11.635l4.103,2.744l-4.103,2.746l0,-5.49zm14.166,17.125l-12.854,-8.566l5.741,-3.84l7.113,4.756l0,7.65zm1.639,-10.498l-5.801,-3.883l5.801,-3.879l5.802,3.879l-5.802,3.883zm1.64,10.498l0,-7.65l7.11,-4.756l5.741,3.84l-12.851,8.566zm14.165,-11.635l-4.102,-2.746l4.102,-2.744l0,5.49z"/>
 </g>
</svg>